<?xml version="1.0" encoding="UTF-8" standalone="no"?>
<!-- Created with Inkscape (http://www.inkscape.org/) -->

<svg
   width="600"
   height="150"
   viewBox="0 0 158.75 39.6875"
   version="1.1"
   id="svg1"
   inkscape:version="1.3.2 (091e20e, 2023-11-25, custom)"
   sodipodi:docname="matchTrimDiagram.svg"
   xmlns:inkscape="http://www.inkscape.org/namespaces/inkscape"
   xmlns:sodipodi="http://sodipodi.sourceforge.net/DTD/sodipodi-0.dtd"
   xmlns:xlink="http://www.w3.org/1999/xlink"
   xmlns="http://www.w3.org/2000/svg"
   xmlns:svg="http://www.w3.org/2000/svg">
  <sodipodi:namedview
     id="namedview1"
     pagecolor="#505050"
     bordercolor="#eeeeee"
     borderopacity="1"
     inkscape:showpageshadow="0"
     inkscape:pageopacity="0"
     inkscape:pagecheckerboard="0"
     inkscape:deskcolor="#505050"
     inkscape:document-units="px"
     showguides="false"
     inkscape:zoom="1.7436412"
     inkscape:cx="159.14972"
     inkscape:cy="-36.131287"
     inkscape:window-width="1600"
     inkscape:window-height="930"
     inkscape:window-x="-6"
     inkscape:window-y="-6"
     inkscape:window-maximized="1"
     inkscape:current-layer="layer1" />
  <defs
     id="defs1">
    <linearGradient
       id="linearGradient2"
       inkscape:collect="always">
      <stop
         style="stop-color:#808080;stop-opacity:0;"
         offset="0"
         id="stop2" />
      <stop
         style="stop-color:#808080;stop-opacity:1;"
         offset="0.03"
         id="stop4" />
      <stop
         style="stop-color:#808080;stop-opacity:1;"
         offset="0.97000003"
         id="stop5" />
      <stop
         style="stop-color:#808080;stop-opacity:0;"
         offset="1"
         id="stop3" />
    </linearGradient>
    <linearGradient
       inkscape:collect="always"
       xlink:href="#linearGradient2"
       id="linearGradient3"
       x1="-1.5492076e-06"
       y1="33.047188"
       x2="105.83334"
       y2="33.047188"
       gradientUnits="userSpaceOnUse"
       gradientTransform="matrix(1.4999999,0,0,1,0,-10.054167)" />
  </defs>
  <g
     inkscape:label="Layer 1"
     inkscape:groupmode="layer"
     id="layer1">
    <path
       id="rect1"
       style="fill:url(#linearGradient3);stroke-width:0.422525;stroke-linecap:round;paint-order:stroke fill markers"
       d="M -1.5492076e-6,13.071142 H 158.75 v 19.84375 H -1.5492076e-6 Z" />
    <path
       id="rect1-1"
       style="fill:#588080;stroke-width:0.311448;stroke-linecap:round;paint-order:stroke fill markers"
       d="m 15.616614,13.071142 h 86.254166 v 19.84375 H 15.616614 Z" />
    <path
       id="rect1-1-6"
       style="fill:#a88080;stroke-width:0.0995996;stroke-linecap:round;paint-order:stroke fill markers"
       d="m 120.0659,13.071142 h 8.82121 v 19.84375 h -8.82121 z" />
    <path
       style="fill:none;stroke:#ffffff;stroke-width:0.529218;stroke-linecap:square;stroke-dasharray:none;stroke-opacity:1;paint-order:stroke fill markers"
       d="M 18.822695,6.7212191 V 32.650281"
       id="path1" />
    <g
       id="path1-7">
      <path
         style="color:#000000;fill:#000000;stroke-linecap:square;-inkscape-stroke:none;paint-order:stroke fill markers"
         d="m 7.0664062,17.769531 v 0.529297 h 0.265625 6.7812498 0.263672 V 17.769531 H 14.113281 7.3320312 Z"
         id="path6" />
      <g
         id="g2">
        <g
           id="path2">
          <path
             style="color:#000000;fill:#000000;fill-rule:evenodd;-inkscape-stroke:none"
             d="m 15.334642,18.034704 -1.830917,1.058334 V 16.97637 Z"
             id="path3" />
          <path
             style="color:#000000;fill:#000000;fill-rule:evenodd;-inkscape-stroke:none"
             d="m 13.363281,16.732422 v 2.605469 l 2.253907,-1.302735 z m 0.28125,0.486328 1.408203,0.816406 -1.408203,0.814453 z"
             id="path4" />
        </g>
      </g>
    </g>
    <g
       id="path1-7-4">
      <path
         style="color:#000000;fill:#000000;stroke-linecap:square;-inkscape-stroke:none;paint-order:stroke fill markers"
         d="m 20.326172,17.769531 v 0.529297 h 0.263672 6.783203 0.263672 v -0.529297 h -0.263672 -6.783203 z"
         id="path10" />
      <g
         id="g7">
        <g
           id="path7">
          <path
             style="color:#000000;fill:#000000;fill-rule:evenodd;-inkscape-stroke:none"
             d="m 19.369276,18.034704 1.830917,-1.058334 v 2.116668 z"
             id="path8" />
          <path
             style="color:#000000;fill:#000000;fill-rule:evenodd;-inkscape-stroke:none"
             d="m 21.341797,16.732422 -2.253906,1.302734 2.253906,1.302735 z m -0.283203,0.488281 v 1.626953 l -1.408203,-0.8125 z"
             id="path9" />
        </g>
      </g>
    </g>
    <g
       id="path1-7-8">
      <path
         style="color:#000000;fill:#000000;stroke-linecap:square;-inkscape-stroke:none;paint-order:stroke fill markers"
         d="m 111.51563,17.769531 v 0.529297 h 0.26562 6.78125 0.26563 v -0.529297 h -0.26563 -6.78125 z"
         id="path22" />
      <g
         id="g19">
        <g
           id="path19">
          <path
             style="color:#000000;fill:#000000;fill-rule:evenodd;-inkscape-stroke:none"
             d="m 119.78393,18.034704 -1.83092,1.058334 V 16.97637 Z"
             id="path20" />
          <path
             style="color:#000000;fill:#000000;fill-rule:evenodd;-inkscape-stroke:none"
             d="m 117.8125,16.732422 v 2.605469 l 2.25391,-1.302735 z m 0.28125,0.486328 1.4082,0.816406 -1.4082,0.814453 z"
             id="path21" />
        </g>
      </g>
    </g>
    <g
       id="path1-7-4-2">
      <path
         style="color:#000000;fill:#000000;stroke-linecap:square;-inkscape-stroke:none;paint-order:stroke fill markers"
         d="m 123.20703,17.769531 v 0.529297 h 0.26367 6.78321 0.26367 v -0.529297 h -0.26367 -6.78321 z"
         id="path30" />
      <g
         id="g27">
        <g
           id="path27">
          <path
             style="color:#000000;fill:#000000;fill-rule:evenodd;-inkscape-stroke:none"
             d="m 122.25032,18.034704 1.83092,-1.058334 v 2.116668 z"
             id="path28" />
          <path
             style="color:#000000;fill:#000000;fill-rule:evenodd;-inkscape-stroke:none"
             d="m 124.22266,16.732422 -2.25391,1.302734 2.25391,1.302735 z m -0.28321,0.488281 v 1.626953 l -1.4082,-0.8125 z"
             id="path29" />
        </g>
      </g>
    </g>
    <g
       id="path1-7-4-2-6">
      <path
         style="color:#000000;fill:#000000;stroke-linecap:square;-inkscape-stroke:none;paint-order:stroke fill markers"
         d="m 130.125,26.421875 v 0.529297 h 0.26562 6.78125 0.26563 v -0.529297 h -0.26563 -6.78125 z"
         id="path34" />
      <g
         id="g31">
        <g
           id="path31">
          <path
             style="color:#000000;fill:#000000;fill-rule:evenodd;-inkscape-stroke:none"
             d="M 129.16908,26.687147 131,25.628813 v 2.116668 z"
             id="path32" />
          <path
             style="color:#000000;fill:#000000;fill-rule:evenodd;-inkscape-stroke:none"
             d="m 131.14062,25.384766 -2.2539,1.302734 2.2539,1.302734 z m -0.28125,0.488281 v 1.628906 l -1.4082,-0.814453 z"
             id="path33" />
        </g>
      </g>
    </g>
    <g
       id="path1-7-8-5-0">
      <path
         style="color:#000000;fill:#000000;stroke-linecap:square;-inkscape-stroke:none;paint-order:stroke fill markers"
         d="m 93.322266,26.421875 v 0.529297 h 0.263671 6.781253 0.26562 v -0.529297 h -0.26562 -6.781253 z"
         id="path18" />
      <g
         id="g15">
        <g
           id="path15">
          <path
             style="color:#000000;fill:#000000;fill-rule:evenodd;-inkscape-stroke:none"
             d="m 101.58881,26.687147 -1.83092,1.058334 v -2.116668 z"
             id="path16" />
          <path
             style="color:#000000;fill:#000000;fill-rule:evenodd;-inkscape-stroke:none"
             d="m 99.617187,25.384766 v 2.605468 L 101.87109,26.6875 Z m 0.28125,0.488281 1.408203,0.814453 -1.408203,0.814453 z"
             id="path17" />
        </g>
      </g>
    </g>
    <g
       id="path1-7-4-2-6-2">
      <path
         style="color:#000000;fill:#000000;stroke-linecap:square;-inkscape-stroke:none;paint-order:stroke fill markers"
         d="m 20.496094,26.421875 v 0.529297 h 0.265625 6.78125 0.263672 v -0.529297 h -0.263672 -6.78125 z"
         id="path14" />
      <g
         id="g11">
        <g
           id="path11">
          <path
             style="color:#000000;fill:#000000;fill-rule:evenodd;-inkscape-stroke:none"
             d="m 19.539664,26.687147 1.830917,-1.058334 v 2.116668 z"
             id="path12" />
          <path
             style="color:#000000;fill:#000000;fill-rule:evenodd;-inkscape-stroke:none"
             d="m 21.511719,25.384766 -2.253907,1.302734 2.253907,1.302734 z M 21.228516,25.875 V 27.5 l -1.408204,-0.8125 z"
             id="path13" />
        </g>
      </g>
    </g>
    <path
       style="fill:none;stroke:#ffffff;stroke-width:0.529218;stroke-linecap:square;stroke-dasharray:none;stroke-opacity:1;paint-order:stroke fill markers"
       d="M 121.70374,6.7212191 V 32.650281"
       id="path1-5" />
    <path
       style="font-weight:500;font-size:6.11803px;line-height:0.85;font-family:Roboto;-inkscape-font-specification:'Roboto Medium';letter-spacing:0.0652052px;fill:#ffffff;stroke-width:0.0966002;stroke-linecap:square;paint-order:stroke fill markers"
       d="m 20.939161,6.2684153 1.254674,3.3338485 1.251687,-3.3338485 h 0.976853 V 10.617952 H 23.669571 V 9.184039 l 0.07468,-1.917859 -1.284548,3.351772 h -0.540705 l -1.28156,-3.3487847 0.07468,1.9148717 v 1.433913 H 19.95932 V 6.2684153 Z m 6.302728,4.3495367 q -0.0478,-0.09261 -0.08365,-0.301719 -0.346529,0.361466 -0.848399,0.361466 -0.486933,0 -0.794627,-0.277821 -0.307694,-0.277821 -0.307694,-0.6870834 0,-0.5168063 0.382377,-0.7916397 0.385364,-0.2778207 1.099334,-0.2778207 h 0.44511 V 8.4312346 q 0,-0.2509349 -0.140404,-0.4003008 -0.140404,-0.1523533 -0.427187,-0.1523533 -0.247947,0 -0.406275,0.1254674 -0.158328,0.1224801 -0.158328,0.3136685 h -0.725919 q 0,-0.2658714 0.176252,-0.495895 0.176252,-0.2330109 0.477971,-0.3644529 0.304707,-0.1314421 0.678122,-0.1314421 0.567591,0 0.905158,0.2867827 0.337567,0.2837953 0.346529,0.8006016 v 1.4578118 q 0,0.4361485 0.12248,0.6960455 v 0.05078 z m -0.797615,-0.522781 q 0.215087,0 0.403288,-0.1045557 0.191189,-0.1045562 0.286783,-0.280808 V 9.1003941 h -0.391339 q -0.403288,0 -0.606426,0.140404 -0.203137,0.140404 -0.203137,0.3973135 0,0.2091123 0.137416,0.3345798 0.140404,0.1224796 0.373415,0.1224796 z m 3.151107,-3.4951632 v 0.785665 h 0.570578 v 0.5377175 h -0.570578 v 1.8043409 q 0,0.1852138 0.0717,0.2688587 0.07468,0.080658 0.262884,0.080658 0.125467,0 0.253922,-0.02987 v 0.561616 q -0.247948,0.06871 -0.477971,0.06871 -0.83645,0 -0.83645,-0.923082 V 7.9233903 H 28.337719 V 7.3856728 h 0.531743 v -0.785665 z m 2.517794,3.4981512 q 0.271846,0 0.451085,-0.1583282 0.179239,-0.1583279 0.191189,-0.3913388 h 0.684096 q -0.01195,0.3017193 -0.188201,0.564603 -0.176252,0.259897 -0.477972,0.41225 -0.301719,0.152354 -0.651235,0.152354 -0.678122,0 -1.075435,-0.439136 -0.397314,-0.4391362 -0.397314,-1.2128519 v -0.074683 q 0,-0.7378678 0.394327,-1.1799911 0.394326,-0.4451106 1.075435,-0.4451106 0.576552,0 0.938018,0.3375671 0.364453,0.3345798 0.382377,0.8812592 H 32.755449 Q 32.743499,8.266932 32.56426,8.0876928 32.388008,7.9084537 32.113175,7.9084537 q -0.352504,0 -0.543692,0.2569094 -0.191189,0.2539222 -0.194176,0.7737158 v 0.1165054 q 0,0.5257682 0.188201,0.785665 0.191189,0.2569097 0.549667,0.2569097 z m 2.655211,-2.3599825 q 0.355491,-0.4122501 0.899183,-0.4122501 1.033613,0 1.048549,1.1799912 V 10.617952 H 35.9902 V 8.5328034 q 0,-0.3345797 -0.146379,-0.4719964 -0.143391,-0.140404 -0.424199,-0.140404 -0.436149,0 -0.651236,0.3883515 V 10.617952 H 34.042467 V 6.0294298 h 0.725919 z m 6.678615,1.7595311 q 0,-0.2867827 -0.203138,-0.4421233 Q 41.043713,8.9002437 40.517944,8.7419158 39.992176,8.5835879 39.681495,8.3894121 39.087018,8.0159972 39.087018,7.415546 q 0,-0.5257682 0.427187,-0.8663226 0.430174,-0.3405544 1.11427,-0.3405544 0.454073,0 0.809564,0.1672898 0.355491,0.1672899 0.558628,0.4779711 0.203138,0.3076939 0.203138,0.6840962 h -0.752804 q 0,-0.3405544 -0.215087,-0.5317429 -0.2121,-0.1941757 -0.609414,-0.1941757 -0.370427,0 -0.576552,0.1583279 -0.203138,0.1583279 -0.203138,0.4421233 0,0.2389855 0.221062,0.4003008 0.221061,0.1583279 0.728906,0.3106812 0.507844,0.1493659 0.815538,0.3435417 0.307694,0.1911884 0.451085,0.4421233 0.143391,0.2479475 0.143391,0.5825272 0,0.5436921 -0.418224,0.8663231 -0.415238,0.319643 -1.129207,0.319643 -0.471996,0 -0.86931,-0.173265 -0.394326,-0.176252 -0.615388,-0.483946 -0.218074,-0.3076934 -0.218074,-0.7169562 h 0.755792 q 0,0.3704276 0.24496,0.5735653 0.24496,0.2031379 0.70202,0.2031379 0.394326,0 0.591489,-0.1583281 0.200151,-0.1613152 0.200151,-0.4241993 z m 2.323618,-2.8976998 v 0.785665 h 0.570578 v 0.5377175 h -0.570578 v 1.8043409 q 0,0.1852138 0.0717,0.2688587 0.07468,0.080658 0.262884,0.080658 0.125468,0 0.253922,-0.02987 v 0.561616 q -0.247947,0.06871 -0.477971,0.06871 -0.836449,0 -0.836449,-0.923082 V 7.9233903 H 42.512958 V 7.3856728 h 0.531743 v -0.785665 z m 3.121233,4.0179442 q -0.0478,-0.09261 -0.08364,-0.301719 -0.346529,0.361466 -0.848399,0.361466 -0.486933,0 -0.794627,-0.277821 -0.307693,-0.277821 -0.307693,-0.6870834 0,-0.5168063 0.382376,-0.7916397 0.385365,-0.2778207 1.099334,-0.2778207 h 0.445111 V 8.4312346 q 0,-0.2509349 -0.140405,-0.4003008 -0.140404,-0.1523533 -0.427186,-0.1523533 -0.247948,0 -0.406276,0.1254674 -0.158328,0.1224801 -0.158328,0.3136685 h -0.725918 q 0,-0.2658714 0.176252,-0.495895 0.176252,-0.2330109 0.477971,-0.3644529 0.304706,-0.1314421 0.678121,-0.1314421 0.567591,0 0.905158,0.2867827 0.337567,0.2837953 0.346529,0.8006016 v 1.4578118 q 0,0.4361485 0.12248,0.6960455 v 0.05078 z m -0.797614,-0.522781 q 0.215087,0 0.403288,-0.1045557 0.191188,-0.1045562 0.286783,-0.280808 V 9.1003941 H 46.39297 q -0.403288,0 -0.606426,0.140404 -0.203138,0.140404 -0.203138,0.3973135 0,0.2091123 0.137417,0.3345798 0.140404,0.1224796 0.373415,0.1224796 z m 3.933783,-2.0463133 q -0.143391,-0.023899 -0.295745,-0.023899 -0.498882,0 -0.672147,0.3823769 v 2.210616 H 48.334211 V 7.3856728 h 0.693058 l 0.01792,0.3614656 q 0.262884,-0.421212 0.728906,-0.421212 0.15534,0 0.256909,0.041822 z m 1.582765,-1.4488499 v 0.785665 h 0.570578 v 0.5377175 h -0.570578 v 1.8043409 q 0,0.1852138 0.0717,0.2688587 0.07468,0.080658 0.262884,0.080658 0.125468,0 0.253922,-0.02987 v 0.561616 q -0.247947,0.06871 -0.477971,0.06871 -0.836449,0 -0.836449,-0.923082 V 7.9233903 H 50.353124 V 7.3856728 h 0.531743 v -0.785665 z"
       id="text1"
       aria-label="Match Start" />
    <path
       style="font-weight:500;font-size:6.11803px;line-height:0.85;font-family:Roboto;-inkscape-font-specification:'Roboto Medium';letter-spacing:0.0652052px;fill:#ffffff;stroke-width:0.0966002;stroke-linecap:square;paint-order:stroke fill markers"
       d="m 125.21431,9.2587216 q 0,-0.2867827 -0.20314,-0.4421233 -0.20015,-0.1553406 -0.72592,-0.3136685 -0.52577,-0.158328 -0.83645,-0.3525037 -0.59448,-0.3734149 -0.59448,-0.9738661 0,-0.5257682 0.42719,-0.8663227 0.43017,-0.3405544 1.11427,-0.3405544 0.45407,0 0.80956,0.1672899 0.3555,0.1672899 0.55863,0.4779711 0.20314,0.3076939 0.20314,0.6840962 h -0.7528 q 0,-0.3405544 -0.21509,-0.5317429 -0.2121,-0.1941757 -0.60941,-0.1941757 -0.37043,0 -0.57656,0.1583279 -0.20313,0.1583279 -0.20313,0.4421232 0,0.2389856 0.22106,0.4003008 0.22106,0.158328 0.7289,0.3106813 0.50785,0.1493659 0.81554,0.3435417 0.3077,0.1911884 0.45109,0.4421233 0.14339,0.2479475 0.14339,0.5825272 0,0.5436922 -0.41823,0.8663231 -0.41523,0.319643 -1.1292,0.319643 -0.472,0 -0.86931,-0.173265 -0.39433,-0.176252 -0.61539,-0.4839455 -0.21808,-0.3076939 -0.21808,-0.7169567 h 0.7558 q 0,0.3704276 0.24496,0.5735653 0.24496,0.2031377 0.70202,0.2031377 0.39432,0 0.59149,-0.1583279 0.20015,-0.1613152 0.20015,-0.4241993 z m 2.74184,0.6004512 q 0.27185,0 0.45108,-0.158328 0.17924,-0.1583279 0.19119,-0.3913388 h 0.6841 q -0.012,0.3017193 -0.1882,0.5646034 -0.17625,0.2598966 -0.47797,0.4122496 -0.30172,0.152354 -0.65124,0.152354 -0.67812,0 -1.07543,-0.4391362 -0.39732,-0.439136 -0.39732,-1.2128517 v -0.074683 q 0,-0.7378679 0.39433,-1.1799911 0.39433,-0.4451106 1.07543,-0.4451106 0.57656,0 0.93802,0.3375671 0.36446,0.3345797 0.38238,0.8812592 h -0.6841 q -0.012,-0.2778207 -0.19119,-0.4570599 -0.17625,-0.1792391 -0.45108,-0.1792391 -0.3525,0 -0.54369,0.2569094 -0.19119,0.2539222 -0.19418,0.7737157 v 0.1165055 q 0,0.5257682 0.1882,0.785665 0.19119,0.2569095 0.54967,0.2569095 z m 1.80382,-1.1262194 q 0,-0.4749838 0.18821,-0.8543734 0.1882,-0.3823769 0.52875,-0.5855146 0.34056,-0.206125 0.78268,-0.206125 0.65422,0 1.0605,0.421212 0.40926,0.421212 0.44212,1.1172575 l 0.003,0.1702772 q 0,0.4779711 -0.18522,0.8543733 -0.18222,0.3764026 -0.52576,0.5825276 -0.34056,0.206125 -0.78866,0.206125 -0.68409,0 -1.09634,-0.4540728 -0.40927,-0.4570599 -0.40927,-1.215839 z m 0.72592,0.062734 q 0,0.4988823 0.20613,0.7826776 0.20612,0.2808081 0.57356,0.2808081 0.36744,0 0.57058,-0.2867827 0.20613,-0.2867827 0.20613,-0.8394367 0,-0.4899204 -0.2121,-0.7767031 -0.20912,-0.2867826 -0.57058,-0.2867826 -0.35549,0 -0.5646,0.2837953 -0.20912,0.280808 -0.20912,0.8424241 z m 4.65074,-0.9858154 q -0.14339,-0.023899 -0.29574,-0.023899 -0.49888,0 -0.67215,0.3823769 v 2.210616 h -0.72592 V 7.1466868 h 0.69306 l 0.0179,0.3614656 q 0.26288,-0.421212 0.7289,-0.421212 0.15534,0 0.25691,0.041823 z m 1.89046,2.6288413 q -0.69007,0 -1.12024,-0.433162 -0.42719,-0.4361482 -0.42719,-1.1590795 v -0.08962 q 0,-0.4839457 0.18521,-0.8633353 0.1882,-0.3823769 0.52577,-0.5944765 0.33757,-0.2120997 0.75281,-0.2120997 0.66019,0 1.01867,0.421212 0.36147,0.421212 0.36147,1.1919404 v 0.2927573 h -2.11204 q 0.0329,0.4003008 0.26587,0.6333118 0.236,0.2330109 0.59149,0.2330109 0.49889,0 0.81255,-0.4032882 l 0.39134,0.373415 q -0.19417,0.2897704 -0.51979,0.4510854 -0.32263,0.158328 -0.72592,0.158328 z m -0.0866,-2.7692453 q -0.29873,0 -0.48395,0.2091123 -0.18222,0.2091124 -0.23301,0.5825273 h 1.38313 v -0.053772 q -0.0239,-0.3644529 -0.19417,-0.5496667 -0.17028,-0.1882011 -0.472,-0.1882011 z m 3.82325,1.8312267 q 0,-0.1941757 -0.16131,-0.2957446 -0.15833,-0.1015688 -0.52876,-0.1792391 -0.37043,-0.07767 -0.61837,-0.1971631 -0.5437,-0.2628841 -0.5437,-0.7617665 0,-0.4182247 0.35251,-0.6990327 0.3525,-0.280808 0.89619,-0.280808 0.57954,0 0.93503,0.2867826 0.35848,0.2867827 0.35848,0.7438426 h -0.72592 q 0,-0.2091124 -0.15534,-0.3465291 -0.15534,-0.140404 -0.41225,-0.140404 -0.23898,0 -0.39134,0.1105308 -0.14936,0.1105308 -0.14936,0.2957446 0,0.1672899 0.1404,0.2598968 0.14041,0.092607 0.56759,0.1882012 0.42719,0.092607 0.66916,0.2240489 0.24496,0.1284547 0.36147,0.3106812 0.11949,0.1822265 0.11949,0.4421233 0,0.4361486 -0.36147,0.7079947 -0.36146,0.268859 -0.94698,0.268859 -0.39731,0 -0.70799,-0.143392 -0.31068,-0.143391 -0.48395,-0.3943258 -0.17326,-0.2509348 -0.17326,-0.5407048 h 0.70501 q 0.0149,0.2569095 0.19417,0.3973135 0.17924,0.1374167 0.47499,0.1374167 0.28678,0 0.43615,-0.1075435 0.14936,-0.1105308 0.14936,-0.2867827 z m 3.82573,-0.7378678 v 1.6161394 h -0.7558 V 6.0294293 h 1.66394 q 0.72891,0 1.15609,0.3793896 0.43018,0.3793895 0.43018,1.0037393 0,0.6392863 -0.42121,0.9947773 -0.41823,0.3554911 -1.17402,0.3554911 z m 0,-0.6064259 h 0.90814 q 0.40329,0 0.61539,-0.1882011 0.2121,-0.1911884 0.2121,-0.5496668 0,-0.3525037 -0.21509,-0.561616 -0.21508,-0.2120997 -0.59149,-0.2180743 h -0.92905 z m 2.97485,0.5765527 q 0,-0.4749838 0.1882,-0.8543734 0.1882,-0.3823769 0.52876,-0.5855146 0.34055,-0.206125 0.78268,-0.206125 0.65422,0 1.06049,0.421212 0.40927,0.421212 0.44213,1.1172575 l 0.003,0.1702772 q 0,0.4779711 -0.18521,0.8543733 -0.18223,0.3764026 -0.52577,0.5825276 -0.34055,0.206125 -0.78865,0.206125 -0.6841,0 -1.09635,-0.4540728 -0.40926,-0.4570599 -0.40926,-1.215839 z m 0.72592,0.062734 q 0,0.4988823 0.20612,0.7826776 0.20613,0.2808081 0.57357,0.2808081 0.36744,0 0.57058,-0.2867827 0.20612,-0.2867827 0.20612,-0.8394367 0,-0.4899204 -0.2121,-0.7767031 -0.20911,-0.2867826 -0.57057,-0.2867826 -0.3555,0 -0.56461,0.2837953 -0.20911,0.280808 -0.20911,0.8424241 z m 4.77023,0.7050073 q 0,-0.1941757 -0.16131,-0.2957446 -0.15833,-0.1015688 -0.52876,-0.1792391 -0.37043,-0.07767 -0.61837,-0.1971631 -0.5437,-0.2628841 -0.5437,-0.7617665 0,-0.4182247 0.35251,-0.6990327 0.3525,-0.280808 0.89619,-0.280808 0.57954,0 0.93503,0.2867826 0.35848,0.2867827 0.35848,0.7438426 h -0.72592 q 0,-0.2091124 -0.15534,-0.3465291 -0.15534,-0.140404 -0.41225,-0.140404 -0.23898,0 -0.39134,0.1105308 -0.14936,0.1105308 -0.14936,0.2957446 0,0.1672899 0.1404,0.2598968 0.14041,0.092607 0.56759,0.1882012 0.42719,0.092607 0.66916,0.2240489 0.24496,0.1284547 0.36147,0.3106812 0.11949,0.1822265 0.11949,0.4421233 0,0.4361486 -0.36146,0.7079947 -0.36147,0.268859 -0.94699,0.268859 -0.39731,0 -0.70799,-0.143392 -0.31068,-0.143391 -0.48395,-0.3943258 -0.17326,-0.2509348 -0.17326,-0.5407048 h 0.70501 q 0.0149,0.2569095 0.19417,0.3973135 0.17924,0.1374167 0.47499,0.1374167 0.28678,0 0.43615,-0.1075435 0.14936,-0.1105308 0.14936,-0.2867827 z m 2.32063,-3.1396726 v 0.785665 h 0.57058 v 0.5377175 h -0.57058 v 1.8043409 q 0,0.1852138 0.0717,0.2688587 0.0747,0.080658 0.26288,0.080658 0.12547,0 0.25393,-0.029873 v 0.5616157 q -0.24795,0.06871 -0.47798,0.06871 -0.83644,0 -0.83644,-0.923082 V 7.6844043 h -0.53175 V 7.1466868 h 0.53175 v -0.785665 z"
       id="text1-6"
       aria-label="Scores Post" />
    <g
       id="path1-7-8-5">
      <path
         style="color:#000000;fill:#000000;stroke-linecap:square;-inkscape-stroke:none;paint-order:stroke fill markers"
         d="m 113.41797,26.421875 v 0.529297 h 0.26562 6.78125 0.26563 v -0.529297 h -0.26563 -6.78125 z"
         id="path26" />
      <g
         id="g23">
        <g
           id="path23">
          <path
             style="color:#000000;fill:#000000;fill-rule:evenodd;-inkscape-stroke:none"
             d="m 121.68638,26.687147 -1.83092,1.058334 v -2.116668 z"
             id="path24" />
          <path
             style="color:#000000;fill:#000000;fill-rule:evenodd;-inkscape-stroke:none"
             d="m 119.71484,25.384766 v 2.605468 l 2.25391,-1.302734 z m 0.28125,0.488281 1.40821,0.814453 -1.40821,0.814453 z"
             id="path25" />
        </g>
      </g>
    </g>
    <path
       d="m 28.695076,19.358482 v -2.508031 h 0.819933 q 0.408244,0 0.613227,0.16881 0.206706,0.16881 0.206706,0.499539 0,0.1757 -0.09991,0.311782 -0.09991,0.134358 -0.272162,0.208428 0.20326,0.05684 0.320394,0.217041 0.118856,0.158475 0.118856,0.378961 0,0.337619 -0.218764,0.530545 -0.218764,0.192925 -0.618395,0.192925 z m 0.330729,-1.173055 v 0.902615 h 0.546048 q 0.230822,0 0.363458,-0.118856 0.134359,-0.120578 0.134359,-0.330729 0,-0.45303 -0.492649,-0.45303 z m 0,-0.265273 h 0.499539 q 0.217041,0 0.346233,-0.108521 0.130913,-0.10852 0.130913,-0.294555 0,-0.206706 -0.120578,-0.299724 -0.120579,-0.09474 -0.366903,-0.09474 h -0.489204 z m 2.588991,1.472779 q -0.378961,0 -0.616672,-0.248047 -0.237712,-0.249769 -0.237712,-0.666626 v -0.05857 q 0,-0.27733 0.105075,-0.494371 0.106798,-0.218764 0.296279,-0.341065 0.191203,-0.124023 0.413411,-0.124023 0.363458,0 0.564996,0.239434 0.201539,0.239434 0.201539,0.685574 v 0.132637 h -1.262629 q 0.0069,0.275607 0.160197,0.44614 0.15503,0.168809 0.392741,0.168809 0.16881,0 0.285944,-0.0689 0.117133,-0.0689 0.204983,-0.182591 l 0.194648,0.151585 q -0.234267,0.360012 -0.7028,0.360012 z m -0.03962,-1.670872 q -0.192925,0 -0.323839,0.141249 -0.130914,0.139526 -0.161919,0.392741 h 0.933621 v -0.02412 Q 32.00926,17.989056 31.892126,17.85642 31.774993,17.722061 31.575177,17.722061 Z m 1.291912,1.636421 v -1.617473 h -0.294556 v -0.246325 h 0.294556 v -0.191202 q 0,-0.299724 0.160197,-0.463366 0.160197,-0.163642 0.45303,-0.163642 0.110243,0 0.218764,0.02928 l -0.01723,0.258382 q -0.08096,-0.0155 -0.172255,-0.0155 -0.15503,0 -0.239435,0.09129 -0.0844,0.08957 -0.0844,0.258382 v 0.19637 h 0.397909 v 0.246325 H 33.18576 v 1.617473 z m 0.983575,-0.949124 q 0,-0.273885 0.106798,-0.492649 0.108521,-0.218764 0.299724,-0.33762 0.192925,-0.118855 0.43925,-0.118855 0.380683,0 0.61495,0.263549 0.235989,0.26355 0.235989,0.701078 v 0.02239 q 0,0.272163 -0.105075,0.489204 -0.103353,0.215318 -0.298001,0.335897 -0.192926,0.120578 -0.444418,0.120578 -0.378961,0 -0.61495,-0.26355 -0.234267,-0.26355 -0.234267,-0.697632 z m 0.320395,0.0379 q 0,0.310059 0.142971,0.497817 0.144694,0.187757 0.385851,0.187757 0.242879,0 0.385851,-0.18948 0.142972,-0.191203 0.142972,-0.53399 0,-0.306614 -0.146417,-0.496094 -0.144694,-0.191203 -0.385851,-0.191203 -0.235989,0 -0.380683,0.187758 -0.144694,0.187758 -0.144694,0.537435 z M 36.8479,17.780628 q -0.07235,-0.01206 -0.156752,-0.01206 -0.313504,0 -0.42547,0.266995 v 1.322917 h -0.318672 v -1.863798 h 0.310059 l 0.0052,0.215319 q 0.156752,-0.249769 0.444418,-0.249769 0.09302,0 0.141249,0.02412 z m 1.033529,1.612305 q -0.37896,0 -0.616672,-0.248047 -0.237712,-0.249769 -0.237712,-0.666626 v -0.05857 q 0,-0.27733 0.105076,-0.494371 0.106798,-0.218764 0.296278,-0.341065 0.191203,-0.124023 0.413412,-0.124023 0.363457,0 0.564996,0.239434 0.201538,0.239434 0.201538,0.685574 v 0.132637 h -1.262628 q 0.0069,0.275607 0.160197,0.44614 0.155029,0.168809 0.392741,0.168809 0.16881,0 0.285943,-0.0689 0.117133,-0.0689 0.204983,-0.182591 l 0.194648,0.151585 q -0.234266,0.360012 -0.7028,0.360012 z m -0.03962,-1.670872 q -0.192926,0 -0.32384,0.141249 -0.130913,0.139526 -0.161919,0.392741 h 0.933621 v -0.02412 Q 38.275893,17.989056 38.15876,17.85642 38.041626,17.722061 37.841811,17.722061 Z m 2.485637,-0.87161 0.819933,2.046388 0.819934,-2.046388 h 0.428914 v 2.508031 H 42.0655 v -0.976685 l 0.03101,-1.0542 -0.823379,2.030885 h -0.253214 l -0.821656,-2.025717 0.03273,1.049032 v 0.976685 h -0.330729 v -2.508031 z m 3.753435,2.508031 q -0.02756,-0.05512 -0.04479,-0.19637 -0.222209,0.230821 -0.530545,0.230821 -0.275608,0 -0.45303,-0.155029 -0.1757,-0.156752 -0.1757,-0.396186 0,-0.291111 0.220486,-0.451308 0.222209,-0.16192 0.623563,-0.16192 h 0.310059 v -0.146416 q 0,-0.167088 -0.09991,-0.265273 -0.09991,-0.09991 -0.294556,-0.09991 -0.170532,0 -0.285943,0.08613 -0.115411,0.08613 -0.115411,0.208428 h -0.320394 q 0,-0.139526 0.09818,-0.268717 0.09991,-0.130914 0.268718,-0.206706 0.170532,-0.07579 0.373793,-0.07579 0.322117,0 0.504707,0.161919 0.18259,0.160197 0.18948,0.442695 v 0.85783 q 0,0.256659 0.06546,0.408244 v 0.02756 z M 43.55206,19.115603 q 0.149862,0 0.284221,-0.07752 0.134358,-0.07751 0.194648,-0.201538 v -0.382406 h -0.24977 q -0.585667,0 -0.585667,0.342787 0,0.149862 0.09991,0.234267 0.09991,0.08441 0.25666,0.08441 z m 1.729439,-2.072226 v 0.451307 h 0.347955 v 0.246325 h -0.347955 v 1.15583 q 0,0.111966 0.04651,0.16881 0.04651,0.05512 0.158475,0.05512 0.05512,0 0.151584,-0.02067 v 0.258382 q -0.125746,0.03445 -0.244602,0.03445 -0.213596,0 -0.322117,-0.129191 -0.10852,-0.129191 -0.10852,-0.366903 v -1.15583 h -0.339342 v -0.246325 h 0.339342 v -0.451307 z m 1.467612,2.089451 q 0.170533,0 0.298001,-0.103352 0.127469,-0.103353 0.141249,-0.258383 h 0.301446 q -0.0086,0.160197 -0.110243,0.304891 -0.10163,0.144694 -0.272162,0.230822 -0.16881,0.08613 -0.358291,0.08613 -0.380683,0 -0.606337,-0.253214 -0.223931,-0.254938 -0.223931,-0.69591 v -0.0534 q 0,-0.272163 0.09991,-0.484036 0.09991,-0.211874 0.285943,-0.329007 0.187758,-0.117133 0.442695,-0.117133 0.313504,0 0.52021,0.187757 0.208428,0.187758 0.222208,0.487482 h -0.301446 q -0.01378,-0.180868 -0.137804,-0.296279 -0.122301,-0.117133 -0.303168,-0.117133 -0.24288,0 -0.377238,0.1757 -0.132637,0.173977 -0.132637,0.504707 v 0.06029 q 0,0.322117 0.132637,0.496094 0.132636,0.173977 0.37896,0.173977 z m 1.417657,-1.41249 q 0.211873,-0.260104 0.551215,-0.260104 0.590835,0 0.596002,0.666626 v 1.231622 h -0.318671 v -1.233345 q -0.0017,-0.201538 -0.09302,-0.298001 -0.08957,-0.09646 -0.280775,-0.09646 -0.15503,0 -0.272163,0.08268 -0.117133,0.08268 -0.18259,0.217041 v 1.328085 h -0.318672 v -2.645835 h 0.318672 z"
       id="text5"
       style="font-size:3.52778px;line-height:0.85;font-family:Roboto;-inkscape-font-specification:Roboto;letter-spacing:0px;stroke-width:0.529167;stroke-linecap:square;paint-order:stroke fill markers"
       aria-label="Before Match" />
    <path
       d="m 29.122268,25.502894 0.819933,2.046388 0.819933,-2.046388 h 0.428915 v 2.508031 H 30.86032 V 27.03424 l 0.03101,-1.0542 -0.823379,2.030885 h -0.253214 l -0.821656,-2.025717 0.03273,1.049032 v 0.976685 h -0.330729 v -2.508031 z m 3.753434,2.508031 q -0.02756,-0.05512 -0.04479,-0.19637 -0.222209,0.230821 -0.530545,0.230821 -0.275608,0 -0.453031,-0.155029 -0.1757,-0.156752 -0.1757,-0.396186 0,-0.291111 0.220487,-0.451308 0.222208,-0.16192 0.623562,-0.16192 h 0.310059 v -0.146416 q 0,-0.167088 -0.09991,-0.265273 -0.09991,-0.09991 -0.294556,-0.09991 -0.170532,0 -0.285943,0.08613 -0.115411,0.08613 -0.115411,0.208428 h -0.320394 q 0,-0.139526 0.09819,-0.268718 0.09991,-0.130913 0.268717,-0.206705 0.170533,-0.07579 0.373793,-0.07579 0.322117,0 0.504707,0.16192 0.18259,0.160197 0.189481,0.442695 v 0.857829 q 0,0.25666 0.06546,0.408245 v 0.02756 z m -0.528823,-0.242879 q 0.149862,0 0.284221,-0.07751 0.134359,-0.07751 0.194648,-0.201538 v -0.382406 h -0.24977 q -0.585666,0 -0.585666,0.342787 0,0.149862 0.09991,0.234267 0.09991,0.0844 0.256659,0.0844 z m 1.72944,-2.072226 v 0.451307 h 0.347954 v 0.246325 h -0.347954 v 1.15583 q 0,0.111966 0.04651,0.16881 0.04651,0.05512 0.158475,0.05512 0.05512,0 0.151584,-0.02067 v 0.258382 q -0.125746,0.03445 -0.244602,0.03445 -0.213596,0 -0.322116,-0.129191 -0.108521,-0.129191 -0.108521,-0.366903 v -1.15583 h -0.339342 v -0.246325 h 0.339342 V 25.69582 Z m 1.467611,2.089451 q 0.170533,0 0.298001,-0.103353 0.127469,-0.103352 0.141249,-0.258382 h 0.301446 q -0.0086,0.160197 -0.110243,0.304891 -0.10163,0.144694 -0.272163,0.230822 -0.168809,0.08613 -0.35829,0.08613 -0.380683,0 -0.606337,-0.253214 -0.223931,-0.254938 -0.223931,-0.69591 v -0.0534 q 0,-0.272163 0.09991,-0.484036 0.09991,-0.211874 0.285943,-0.329007 0.187757,-0.117134 0.442695,-0.117134 0.313504,0 0.520209,0.187758 0.208429,0.187758 0.222209,0.487482 H 35.98318 q -0.01378,-0.180868 -0.137804,-0.296279 -0.122301,-0.117133 -0.303168,-0.117133 -0.24288,0 -0.377238,0.1757 -0.132637,0.173977 -0.132637,0.504707 v 0.06029 q 0,0.322117 0.132637,0.496094 0.132636,0.173977 0.37896,0.173977 z m 1.417658,-1.41249 q 0.211874,-0.260105 0.551216,-0.260105 0.590834,0 0.596002,0.666627 v 1.231622 H 37.790134 V 26.77758 q -0.0017,-0.201538 -0.09302,-0.298001 -0.08957,-0.09646 -0.280775,-0.09646 -0.155029,0 -0.272163,0.08268 -0.117133,0.08268 -0.18259,0.217041 v 1.328085 H 36.642916 V 25.36509 h 0.318672 z m 2.54765,1.638144 v -2.508031 h 0.707968 q 0.327284,0 0.578776,0.144694 0.251492,0.144694 0.387573,0.411689 0.137804,0.266996 0.139527,0.613228 v 0.160197 q 0,0.354845 -0.137804,0.62184 -0.136081,0.266995 -0.391019,0.409967 -0.253214,0.142971 -0.590834,0.146416 z m 0.330729,-2.235868 v 1.965428 h 0.347955 q 0.382406,0 0.59428,-0.237712 0.213596,-0.237711 0.213596,-0.676961 v -0.146417 q 0,-0.427192 -0.201539,-0.663181 -0.199815,-0.237712 -0.568441,-0.241157 z m 3.083363,2.051556 q -0.186035,0.218763 -0.546048,0.218763 -0.298001,0 -0.454753,-0.172255 -0.155029,-0.173977 -0.156752,-0.513319 v -1.212675 h 0.318672 v 1.204062 q 0,0.423747 0.344509,0.423747 0.365181,0 0.485759,-0.272163 v -1.355646 h 0.318672 v 1.863798 H 42.93022 Z m 1.694988,-1.393542 q -0.07235,-0.01206 -0.156752,-0.01206 -0.313504,0 -0.42547,0.266995 v 1.322917 h -0.318671 v -1.863798 h 0.310058 l 0.0052,0.215319 q 0.156752,-0.24977 0.444418,-0.24977 0.09302,0 0.141249,0.02412 z m 1.374593,1.577854 q -0.02756,-0.05512 -0.04479,-0.19637 -0.222209,0.230821 -0.530545,0.230821 -0.275608,0 -0.453031,-0.155029 -0.1757,-0.156752 -0.1757,-0.396186 0,-0.291111 0.220486,-0.451308 0.222209,-0.16192 0.623563,-0.16192 h 0.310059 v -0.146416 q 0,-0.167088 -0.09991,-0.265273 -0.09991,-0.09991 -0.294556,-0.09991 -0.170532,0 -0.285943,0.08613 -0.115411,0.08613 -0.115411,0.208428 h -0.320394 q 0,-0.139526 0.09819,-0.268718 0.09991,-0.130913 0.268717,-0.206705 0.170533,-0.07579 0.373793,-0.07579 0.322117,0 0.504707,0.16192 0.18259,0.160197 0.18948,0.442695 v 0.857829 q 0,0.25666 0.06546,0.408245 v 0.02756 z m -0.528823,-0.242879 q 0.149862,0 0.284221,-0.07751 0.134359,-0.07751 0.194648,-0.201538 v -0.382406 h -0.24977 q -0.585666,0 -0.585666,0.342787 0,0.149862 0.09991,0.234267 0.09991,0.0844 0.256659,0.0844 z m 1.729441,-2.072226 v 0.451307 h 0.347954 v 0.246325 h -0.347954 v 1.15583 q 0,0.111966 0.04651,0.16881 0.04651,0.05512 0.158475,0.05512 0.05512,0 0.151584,-0.02067 v 0.258382 q -0.125746,0.03445 -0.244602,0.03445 -0.213596,0 -0.322116,-0.129191 -0.108521,-0.129191 -0.108521,-0.366903 v -1.15583 h -0.339342 v -0.246325 h 0.339342 V 25.69582 Z m 1.066258,2.315105 h -0.318672 v -1.863798 h 0.318672 z m -0.34451,-2.358169 q 0,-0.07752 0.04651,-0.130914 0.04823,-0.0534 0.141249,-0.0534 0.09302,0 0.141249,0.0534 0.04823,0.0534 0.04823,0.130914 0,0.07751 -0.04823,0.129191 -0.04823,0.05168 -0.141249,0.05168 -0.09302,0 -0.141249,-0.05168 -0.04651,-0.05168 -0.04651,-0.129191 z m 0.769978,1.409045 q 0,-0.273885 0.106798,-0.492649 0.108521,-0.218764 0.299724,-0.33762 0.192925,-0.118856 0.43925,-0.118856 0.380683,0 0.61495,0.26355 0.235989,0.26355 0.235989,0.701078 v 0.02239 q 0,0.272163 -0.105075,0.489204 -0.103353,0.215318 -0.298001,0.335897 -0.192926,0.120578 -0.444418,0.120578 -0.378961,0 -0.61495,-0.26355 -0.234267,-0.26355 -0.234267,-0.697632 z m 0.320394,0.0379 q 0,0.310059 0.142972,0.497817 0.144694,0.187757 0.385851,0.187757 0.242879,0 0.385851,-0.18948 0.142971,-0.191203 0.142971,-0.53399 0,-0.306614 -0.146416,-0.496094 -0.144694,-0.191203 -0.385851,-0.191203 -0.235989,0 -0.380683,0.187758 -0.144695,0.187758 -0.144695,0.537435 z m 2.077395,-0.95257 0.01034,0.234267 q 0.213596,-0.268718 0.558106,-0.268718 0.590834,0 0.596001,0.666627 v 1.231622 H 51.928816 V 26.77758 q -0.0017,-0.201538 -0.09302,-0.298001 -0.08957,-0.09646 -0.280775,-0.09646 -0.15503,0 -0.272163,0.08268 -0.117133,0.08268 -0.18259,0.217041 v 1.328085 h -0.318672 v -1.863798 z m 3.431316,0.518488 h 0.699355 v 0.301446 H 54.51436 v 0.792372 h -0.320394 v -0.792372 h -0.699355 v -0.301446 h 0.699355 v -0.732084 h 0.320394 z m 3.395145,0.690742 H 56.85875 l -0.235989,0.654568 h -0.341064 l 0.957737,-2.508031 h 0.289388 l 0.95946,2.508031 H 58.14894 Z m -0.950847,-0.272163 h 0.852662 l -0.427192,-1.173056 z m 1.974041,0.926731 v -1.617473 h -0.294556 v -0.246325 h 0.294556 v -0.191202 q 0,-0.299724 0.160197,-0.463366 0.160197,-0.163642 0.45303,-0.163642 0.110243,0 0.218764,0.02928 l -0.01723,0.258382 q -0.08096,-0.0155 -0.172254,-0.0155 -0.15503,0 -0.239435,0.0913 -0.0844,0.08957 -0.0844,0.258382 v 0.19637 h 0.397909 v 0.246325 H 59.25137 v 1.617473 z m 1.500339,-2.315105 v 0.451307 h 0.347955 v 0.246325 h -0.347955 v 1.15583 q 0,0.111966 0.04651,0.16881 0.04651,0.05512 0.158474,0.05512 0.05512,0 0.151585,-0.02067 v 0.258382 q -0.125746,0.03445 -0.244602,0.03445 -0.213596,0 -0.322117,-0.129191 -0.10852,-0.129191 -0.10852,-0.366903 v -1.15583 h -0.339343 v -0.246325 h 0.339343 V 25.69582 Z m 1.49345,2.349556 q -0.37896,0 -0.616672,-0.248047 -0.237712,-0.249769 -0.237712,-0.666626 v -0.05857 q 0,-0.27733 0.105076,-0.494371 0.106798,-0.218764 0.296278,-0.341065 0.191203,-0.124024 0.413412,-0.124024 0.363458,0 0.564996,0.239435 0.201538,0.239434 0.201538,0.685574 v 0.132636 h -1.262628 q 0.0069,0.275608 0.160197,0.446141 0.155029,0.168809 0.392741,0.168809 0.16881,0 0.285943,-0.0689 0.117133,-0.0689 0.204983,-0.18259 l 0.194648,0.151585 q -0.234266,0.360012 -0.7028,0.360012 z m -0.03962,-1.670872 q -0.192926,0 -0.323839,0.141249 -0.130914,0.139526 -0.16192,0.392741 h 0.933622 v -0.02412 q -0.01378,-0.242879 -0.130914,-0.375515 -0.117133,-0.134359 -0.316949,-0.134359 z m 2.036052,0.05857 q -0.07235,-0.01206 -0.156752,-0.01206 -0.313504,0 -0.425469,0.266995 v 1.322917 h -0.318672 v -1.863798 h 0.310059 l 0.0052,0.215319 q 0.156752,-0.24977 0.444417,-0.24977 0.09302,0 0.141249,0.02412 z m 1.643312,-0.930177 0.819933,2.046388 0.819933,-2.046388 h 0.428915 v 2.508031 H 67.304286 V 27.03424 l 0.031,-1.0542 -0.823378,2.030885 h -0.253215 l -0.821655,-2.025717 0.03273,1.049032 v 0.976685 h -0.330729 v -2.508031 z m 3.753434,2.508031 q -0.02756,-0.05512 -0.04479,-0.19637 -0.222209,0.230821 -0.530545,0.230821 -0.275608,0 -0.45303,-0.155029 -0.1757,-0.156752 -0.1757,-0.396186 0,-0.291111 0.220486,-0.451308 0.222209,-0.16192 0.623563,-0.16192 h 0.310058 v -0.146416 q 0,-0.167088 -0.09991,-0.265273 -0.09991,-0.09991 -0.294556,-0.09991 -0.170533,0 -0.285943,0.08613 -0.115411,0.08613 -0.115411,0.208428 h -0.320394 q 0,-0.139526 0.09819,-0.268718 0.09991,-0.130913 0.268718,-0.206705 0.170532,-0.07579 0.373793,-0.07579 0.322116,0 0.504707,0.16192 0.18259,0.160197 0.18948,0.442695 v 0.857829 q 0,0.25666 0.06546,0.408245 v 0.02756 z m -0.528822,-0.242879 q 0.149862,0 0.28422,-0.07751 0.134359,-0.07751 0.194648,-0.201538 v -0.382406 h -0.249769 q -0.585667,0 -0.585667,0.342787 0,0.149862 0.09991,0.234267 0.09991,0.0844 0.25666,0.0844 z m 1.729438,-2.072226 v 0.451307 h 0.347955 v 0.246325 h -0.347955 v 1.15583 q 0,0.111966 0.04651,0.16881 0.04651,0.05512 0.158474,0.05512 0.05512,0 0.151585,-0.02067 v 0.258382 q -0.125746,0.03445 -0.244602,0.03445 -0.213596,0 -0.322117,-0.129191 -0.108521,-0.129191 -0.108521,-0.366903 v -1.15583 H 69.86227 v -0.246325 h 0.339342 V 25.69582 Z m 1.467612,2.089451 q 0.170533,0 0.298001,-0.103353 0.127469,-0.103352 0.141249,-0.258382 h 0.301446 q -0.0086,0.160197 -0.110243,0.304891 -0.10163,0.144694 -0.272163,0.230822 -0.168809,0.08613 -0.35829,0.08613 -0.380683,0 -0.606337,-0.253214 -0.223931,-0.254938 -0.223931,-0.69591 v -0.0534 q 0,-0.272163 0.09991,-0.484036 0.09991,-0.211874 0.285944,-0.329007 0.187757,-0.117134 0.442695,-0.117134 0.313504,0 0.520209,0.187758 0.208429,0.187758 0.222209,0.487482 h -0.301446 q -0.01378,-0.180868 -0.137804,-0.296279 -0.122301,-0.117133 -0.303168,-0.117133 -0.24288,0 -0.377239,0.1757 -0.132636,0.173977 -0.132636,0.504707 v 0.06029 q 0,0.322117 0.132636,0.496094 0.132637,0.173977 0.378961,0.173977 z m 1.417658,-1.41249 q 0.211874,-0.260105 0.551216,-0.260105 0.590834,0 0.596002,0.666627 v 1.231622 H 74.2341 V 26.77758 q -0.0017,-0.201538 -0.09302,-0.298001 -0.08957,-0.09646 -0.280776,-0.09646 -0.155029,0 -0.272162,0.08268 -0.117134,0.08268 -0.182591,0.217041 v 1.328085 H 73.086883 V 25.36509 h 0.318671 z"
       id="text5-3"
       style="font-size:3.52778px;line-height:0.85;font-family:Roboto;-inkscape-font-specification:Roboto;letter-spacing:0px;stroke-width:0.529167;stroke-linecap:square;paint-order:stroke fill markers"
       aria-label="Match Duration + After Match" />
    <path
       d="m 131.5761,19.358482 v -2.508031 h 0.81993 q 0.40825,0 0.61323,0.16881 0.20671,0.16881 0.20671,0.499539 0,0.1757 -0.0999,0.311782 -0.0999,0.134358 -0.27216,0.208428 0.20326,0.05684 0.32039,0.217041 0.11886,0.158475 0.11886,0.378961 0,0.337619 -0.21877,0.530545 -0.21876,0.192925 -0.61839,0.192925 z m 0.33073,-1.173055 v 0.902615 h 0.54605 q 0.23082,0 0.36345,-0.118856 0.13436,-0.120578 0.13436,-0.330729 0,-0.45303 -0.49265,-0.45303 z m 0,-0.265273 h 0.49954 q 0.21704,0 0.34623,-0.108521 0.13091,-0.10852 0.13091,-0.294555 0,-0.206706 -0.12057,-0.299724 -0.12058,-0.09474 -0.36691,-0.09474 h -0.4892 z m 2.58899,1.472779 q -0.37896,0 -0.61667,-0.248047 -0.23771,-0.249769 -0.23771,-0.666626 v -0.05857 q 0,-0.27733 0.10507,-0.494371 0.1068,-0.218764 0.29628,-0.341065 0.1912,-0.124023 0.41341,-0.124023 0.36346,0 0.565,0.239434 0.20154,0.239434 0.20154,0.685574 v 0.132637 h -1.26263 q 0.007,0.275607 0.16019,0.44614 0.15503,0.168809 0.39274,0.168809 0.16881,0 0.28595,-0.0689 0.11713,-0.0689 0.20498,-0.182591 l 0.19465,0.151585 q -0.23427,0.360012 -0.7028,0.360012 z m -0.0396,-1.670872 q -0.19292,0 -0.32384,0.141249 -0.13091,0.139526 -0.16192,0.392741 h 0.93362 v -0.02412 q -0.0138,-0.242879 -0.13091,-0.375515 -0.11713,-0.134359 -0.31695,-0.134359 z m 1.29191,1.636421 v -1.617473 h -0.29455 v -0.246325 h 0.29455 v -0.191202 q 0,-0.299724 0.1602,-0.463366 0.1602,-0.163642 0.45303,-0.163642 0.11024,0 0.21876,0.02928 l -0.0172,0.258382 q -0.081,-0.0155 -0.17226,-0.0155 -0.15503,0 -0.23943,0.09129 -0.0844,0.08957 -0.0844,0.258382 v 0.19637 h 0.39791 v 0.246325 h -0.39791 v 1.617473 z m 0.98358,-0.949124 q 0,-0.273885 0.1068,-0.492649 0.10852,-0.218764 0.29972,-0.33762 0.19292,-0.118855 0.43925,-0.118855 0.38068,0 0.61495,0.263549 0.23599,0.26355 0.23599,0.701078 v 0.02239 q 0,0.272163 -0.10508,0.489204 -0.10335,0.215318 -0.298,0.335897 -0.19292,0.120578 -0.44442,0.120578 -0.37896,0 -0.61495,-0.26355 -0.23426,-0.26355 -0.23426,-0.697632 z m 0.32039,0.0379 q 0,0.310059 0.14297,0.497817 0.1447,0.187757 0.38585,0.187757 0.24288,0 0.38586,-0.18948 0.14297,-0.191203 0.14297,-0.53399 0,-0.306614 -0.14642,-0.496094 -0.14469,-0.191203 -0.38585,-0.191203 -0.23599,0 -0.38068,0.187758 -0.1447,0.187758 -0.1447,0.537435 z m 2.67684,-0.666626 q -0.0723,-0.01206 -0.15675,-0.01206 -0.3135,0 -0.42547,0.266995 v 1.322917 h -0.31867 v -1.863798 h 0.31006 l 0.005,0.215319 q 0.15675,-0.249769 0.44441,-0.249769 0.093,0 0.14125,0.02412 z m 1.03353,1.612305 q -0.37896,0 -0.61667,-0.248047 -0.23771,-0.249769 -0.23771,-0.666626 v -0.05857 q 0,-0.27733 0.10507,-0.494371 0.1068,-0.218764 0.29628,-0.341065 0.19121,-0.124023 0.41341,-0.124023 0.36346,0 0.565,0.239434 0.20154,0.239434 0.20154,0.685574 v 0.132637 h -1.26263 q 0.007,0.275607 0.1602,0.44614 0.15503,0.168809 0.39274,0.168809 0.16881,0 0.28594,-0.0689 0.11713,-0.0689 0.20498,-0.182591 l 0.19465,0.151585 q -0.23426,0.360012 -0.7028,0.360012 z m -0.0396,-1.670872 q -0.19292,0 -0.32384,0.141249 -0.13091,0.139526 -0.16191,0.392741 h 0.93362 v -0.02412 q -0.0138,-0.242879 -0.13092,-0.375515 -0.11713,-0.134359 -0.31695,-0.134359 z m 2.38918,0.654569 v 0.981852 h -0.33073 v -2.508031 h 0.92501 q 0.41169,0 0.64423,0.210151 0.23427,0.210151 0.23427,0.556383 0,0.365181 -0.2291,0.563274 -0.22738,0.196371 -0.65285,0.196371 z m 0,-0.270441 h 0.59428 q 0.26527,0 0.40652,-0.124023 0.14125,-0.125746 0.14125,-0.361735 0,-0.223932 -0.14125,-0.358291 -0.14125,-0.134358 -0.38757,-0.139526 h -0.61323 z m 1.73805,0.303169 q 0,-0.273885 0.1068,-0.492649 0.10852,-0.218764 0.29972,-0.33762 0.19293,-0.118855 0.43925,-0.118855 0.38069,0 0.61495,0.263549 0.23599,0.26355 0.23599,0.701078 v 0.02239 q 0,0.272163 -0.10507,0.489204 -0.10336,0.215318 -0.29801,0.335897 -0.19292,0.120578 -0.44441,0.120578 -0.37896,0 -0.61495,-0.26355 -0.23427,-0.26355 -0.23427,-0.697632 z m 0.32039,0.0379 q 0,0.310059 0.14298,0.497817 0.14469,0.187757 0.38585,0.187757 0.24288,0 0.38585,-0.18948 0.14297,-0.191203 0.14297,-0.53399 0,-0.306614 -0.14642,-0.496094 -0.14469,-0.191203 -0.38585,-0.191203 -0.23599,0 -0.38068,0.187758 -0.1447,0.187758 -0.1447,0.537435 z m 2.86116,0.416857 q 0,-0.129191 -0.0982,-0.199816 -0.0965,-0.07235 -0.33934,-0.124023 -0.24116,-0.05168 -0.38413,-0.124024 -0.14125,-0.07235 -0.21015,-0.172255 -0.0672,-0.09991 -0.0672,-0.237711 0,-0.229099 0.19293,-0.387574 0.19465,-0.158474 0.49609,-0.158474 0.31695,0 0.51332,0.163642 0.19809,0.163642 0.19809,0.418579 h -0.32039 q 0,-0.130914 -0.11197,-0.225654 -0.11024,-0.09474 -0.27905,-0.09474 -0.17398,0 -0.27216,0.07579 -0.0982,0.07579 -0.0982,0.198093 0,0.115411 0.0913,0.173978 0.0913,0.05857 0.32901,0.111965 0.23943,0.0534 0.38757,0.127469 0.14814,0.07407 0.21876,0.179145 0.0724,0.103353 0.0724,0.253215 0,0.249769 -0.19982,0.401354 -0.19981,0.149861 -0.51848,0.149861 -0.22393,0 -0.39619,-0.07924 -0.17225,-0.07924 -0.27044,-0.220486 -0.0965,-0.142972 -0.0965,-0.308336 h 0.31867 q 0.009,0.160197 0.12747,0.254937 0.12058,0.09302 0.31695,0.09302 0.18086,0 0.28939,-0.07235 0.11024,-0.07407 0.11024,-0.19637 z m 1.16616,-1.820734 v 0.451307 h 0.34796 v 0.246325 h -0.34796 v 1.15583 q 0,0.111966 0.0465,0.16881 0.0465,0.05512 0.15848,0.05512 0.0551,0 0.15158,-0.02067 v 0.258382 q -0.12574,0.03445 -0.2446,0.03445 -0.2136,0 -0.32212,-0.129191 -0.10852,-0.129191 -0.10852,-0.366903 v -1.15583 h -0.33934 v -0.246325 h 0.33934 v -0.451307 z"
       id="text5-0"
       style="font-size:3.52778px;line-height:0.85;font-family:Roboto;-inkscape-font-specification:Roboto;letter-spacing:0px;stroke-width:0.529167;stroke-linecap:square;paint-order:stroke fill markers"
       aria-label="Before Post" />
    <path
       d="m 140.12266,27.356357 h -1.05075 l -0.23599,0.654568 h -0.34106 l 0.95773,-2.508031 h 0.28939 l 0.95946,2.508031 h -0.33934 z m -0.95084,-0.272163 h 0.85266 l -0.42719,-1.173056 z m 1.97404,0.926731 v -1.617473 h -0.29456 v -0.246325 h 0.29456 v -0.191202 q 0,-0.299724 0.1602,-0.463366 0.16019,-0.163642 0.45303,-0.163642 0.11024,0 0.21876,0.02928 l -0.0172,0.258382 q -0.081,-0.0155 -0.17225,-0.0155 -0.15503,0 -0.23943,0.0913 -0.0844,0.08957 -0.0844,0.258382 v 0.19637 h 0.39791 v 0.246325 h -0.39791 v 1.617473 z m 1.50034,-2.315105 v 0.451307 h 0.34795 v 0.246325 h -0.34795 v 1.15583 q 0,0.111966 0.0465,0.16881 0.0465,0.05512 0.15847,0.05512 0.0551,0 0.15159,-0.02067 v 0.258382 q -0.12575,0.03445 -0.24461,0.03445 -0.21359,0 -0.32211,-0.129191 -0.10852,-0.129191 -0.10852,-0.366903 v -1.15583 h -0.33934 v -0.246325 h 0.33934 V 25.69582 Z m 1.49345,2.349556 q -0.37896,0 -0.61667,-0.248047 -0.23772,-0.249769 -0.23772,-0.666626 v -0.05857 q 0,-0.27733 0.10508,-0.494371 0.1068,-0.218764 0.29628,-0.341065 0.1912,-0.124024 0.41341,-0.124024 0.36346,0 0.565,0.239435 0.20153,0.239434 0.20153,0.685574 v 0.132636 h -1.26262 q 0.007,0.275608 0.16019,0.446141 0.15503,0.168809 0.39274,0.168809 0.16881,0 0.28595,-0.0689 0.11713,-0.0689 0.20498,-0.18259 l 0.19465,0.151585 q -0.23427,0.360012 -0.7028,0.360012 z m -0.0396,-1.670872 q -0.19293,0 -0.32384,0.141249 -0.13091,0.139526 -0.16192,0.392741 h 0.93362 v -0.02412 q -0.0138,-0.242879 -0.13091,-0.375515 -0.11713,-0.134359 -0.31695,-0.134359 z m 2.03605,0.05857 q -0.0723,-0.01206 -0.15675,-0.01206 -0.3135,0 -0.42547,0.266995 v 1.322917 h -0.31867 v -1.863798 h 0.31006 l 0.005,0.215319 q 0.15675,-0.24977 0.44441,-0.24977 0.093,0 0.14125,0.02412 z m 1.54685,0.596001 v 0.981853 h -0.33073 v -2.508031 h 0.92501 q 0.41169,0 0.64423,0.210151 0.23427,0.210151 0.23427,0.556383 0,0.365181 -0.2291,0.563274 -0.22737,0.19637 -0.65284,0.19637 z m 0,-0.27044 h 0.59428 q 0.26527,0 0.40652,-0.124023 0.14125,-0.125746 0.14125,-0.361736 0,-0.223931 -0.14125,-0.35829 -0.14125,-0.134358 -0.38757,-0.139526 h -0.61323 z m 1.73805,0.303169 q 0,-0.273885 0.1068,-0.492649 0.10852,-0.218764 0.29973,-0.33762 0.19292,-0.118856 0.43925,-0.118856 0.38068,0 0.61495,0.26355 0.23598,0.26355 0.23598,0.701078 v 0.02239 q 0,0.272163 -0.10507,0.489204 -0.10335,0.215318 -0.298,0.335897 -0.19293,0.120578 -0.44442,0.120578 -0.37896,0 -0.61495,-0.26355 -0.23427,-0.26355 -0.23427,-0.697632 z m 0.3204,0.0379 q 0,0.310059 0.14297,0.497817 0.14469,0.187757 0.38585,0.187757 0.24288,0 0.38585,-0.18948 0.14297,-0.191203 0.14297,-0.53399 0,-0.306614 -0.14641,-0.496094 -0.1447,-0.191203 -0.38585,-0.191203 -0.23599,0 -0.38069,0.187758 -0.14469,0.187758 -0.14469,0.537435 z m 2.86115,0.416857 q 0,-0.129191 -0.0982,-0.199816 -0.0965,-0.07235 -0.33935,-0.124023 -0.24115,-0.05168 -0.38412,-0.124024 -0.14125,-0.07235 -0.21016,-0.172255 -0.0672,-0.09991 -0.0672,-0.237712 0,-0.229099 0.19292,-0.387573 0.19465,-0.158475 0.49609,-0.158475 0.31695,0 0.51332,0.163643 0.1981,0.163642 0.1981,0.418579 h -0.3204 q 0,-0.130914 -0.11196,-0.225654 -0.11025,-0.09474 -0.27906,-0.09474 -0.17397,0 -0.27216,0.07579 -0.0982,0.07579 -0.0982,0.198093 0,0.115411 0.0913,0.173978 0.0913,0.05857 0.32901,0.111965 0.23943,0.0534 0.38757,0.127469 0.14814,0.07407 0.21877,0.179145 0.0723,0.103353 0.0723,0.253215 0,0.249769 -0.19981,0.401354 -0.19982,0.149861 -0.51849,0.149861 -0.22393,0 -0.39619,-0.07924 -0.17225,-0.07924 -0.27044,-0.220486 -0.0965,-0.142972 -0.0965,-0.308336 h 0.31867 q 0.009,0.160197 0.12747,0.254937 0.12058,0.09302 0.31695,0.09302 0.18087,0 0.28939,-0.07235 0.11024,-0.07407 0.11024,-0.19637 z m 1.16617,-1.820734 v 0.451307 h 0.34795 v 0.246325 h -0.34795 v 1.15583 q 0,0.111966 0.0465,0.16881 0.0465,0.05512 0.15847,0.05512 0.0551,0 0.15158,-0.02067 v 0.258382 q -0.12574,0.03445 -0.2446,0.03445 -0.21359,0 -0.32211,-0.129191 -0.10852,-0.129191 -0.10852,-0.366903 v -1.15583 h -0.33935 v -0.246325 h 0.33935 V 25.69582 Z"
       id="text5-0-9"
       style="font-size:3.52778px;line-height:0.85;font-family:Roboto;-inkscape-font-specification:Roboto;letter-spacing:0px;stroke-width:0.529167;stroke-linecap:square;paint-order:stroke fill markers"
       aria-label="After Post" />
  </g>
</svg>
